<?xml version="1.0" standalone="no"?><!DOCTYPE svg PUBLIC "-//W3C//DTD SVG 1.1//EN" "http://www.w3.org/Graphics/SVG/1.1/DTD/svg11.dtd"><svg t="1537427958349" class="icon" style="" viewBox="0 0 1024 1024" version="1.1" xmlns="http://www.w3.org/2000/svg" p-id="2145" xmlns:xlink="http://www.w3.org/1999/xlink" width="200" height="200"><defs><style type="text/css"></style></defs><path d="M512 67C266.2 67 67 266.2 67 512s199.2 445 445 445 445-199.2 445-445S757.8 67 512 67z m279.3 724.3c-36.3 36.3-78.5 64.8-125.6 84.7-48.7 20.6-100.4 31-153.7 31s-105.1-10.4-153.7-31c-47-19.9-89.3-48.4-125.6-84.7-36.3-36.3-64.8-78.5-84.7-125.6-20.6-48.7-31-100.4-31-153.7s10.4-105.1 31-153.7c19.9-47 48.4-89.3 84.7-125.6 36.3-36.3 78.5-64.8 125.6-84.7 48.7-20.6 100.4-31 153.7-31s105.1 10.4 153.7 31c40.9 17.3 78.2 41.1 111.1 70.9L672.5 323.2c-43.2-36.8-99.3-59.1-160.5-59.1-136.9 0-247.8 111-247.8 247.8s111 247.8 247.8 247.8 247.8-111 247.8-247.8c0-57.6-19.7-110.6-52.6-152.7l104.6-104.6c26.7 31 48.2 65.7 64.2 103.5 20.6 48.7 31 100.4 31 153.7s-10.4 105.1-31 153.7c-19.9 47.3-48.4 89.5-84.7 125.8z m-295-291.7c-8.8 9.8-8.5 24.9 0.9 34.4 9.4 9.4 24.6 9.8 34.4 0.9l161.3-161.3c11.7 15.3 21.4 31.9 29 49.8 11.9 28.1 17.9 57.9 17.9 88.7s-6 60.6-17.9 88.7c-11.5 27.1-27.9 51.5-48.8 72.4-20.9 20.9-45.3 37.4-72.4 48.8-28.1 11.9-57.9 17.9-88.7 17.9-30.8 0-60.6-6-88.7-17.9-27.1-11.5-51.5-27.9-72.4-48.8-20.9-20.9-37.4-45.3-48.8-72.4-11.9-28.1-17.9-57.9-17.9-88.7s6-60.6 17.9-88.7c11.5-27.1 27.9-51.5 48.8-72.4 20.9-20.9 45.3-37.4 72.4-48.8 28.1-11.9 57.9-17.9 88.7-17.9 30.8 0 60.6 6 88.7 17.9 21 8.9 40.3 20.7 57.7 35.3L496.3 499.6z" fill="#ffffff" p-id="2146"></path></svg>