<?xml version="1.0" standalone="no"?><!DOCTYPE svg PUBLIC "-//W3C//DTD SVG 1.1//EN" "http://www.w3.org/Graphics/SVG/1.1/DTD/svg11.dtd"><svg t="1533780774788" class="icon" style="" viewBox="0 0 1024 1024" version="1.1" xmlns="http://www.w3.org/2000/svg" p-id="6822" xmlns:xlink="http://www.w3.org/1999/xlink" width="200" height="200"><defs><style type="text/css"></style></defs><path d="M849.066667 733.866667l59.733333 59.733333-29.866667 29.866667-59.733333-59.733334c-42.666667 25.6-98.133333 21.333333-132.266667-12.8-42.666667-42.666667-42.666667-110.933333 0-149.333333s110.933333-42.666667 149.333334 0c34.133333 34.133333 38.4 89.6 12.8 132.266667zM896 512h-42.666667V298.666667H213.333333v469.333333h384v42.666667H170.666667V256h725.333333v256z m-298.666667 85.333333v42.666667H213.333333v-42.666667h384z m-384-170.666666h640v42.666666H213.333333v-42.666666z m42.666667-85.333334h42.666667v42.666667H256V341.333333z m85.333333 0h42.666667v42.666667H341.333333V341.333333z m-85.333333 170.666667h42.666667v42.666667H256v-42.666667z m85.333333 0h42.666667v42.666667H341.333333v-42.666667z m-85.333333 170.666667h42.666667v42.666666H256v-42.666666z m85.333333 0h42.666667v42.666666H341.333333v-42.666666z m371.2 38.4c25.6 25.6 64 25.6 89.6 0s25.6-64 0-89.6-64-25.6-89.6 0-25.6 64 0 89.6z" fill="#ffffff" p-id="6823"></path></svg>