<?xml version="1.0" standalone="no"?><!DOCTYPE svg PUBLIC "-//W3C//DTD SVG 1.1//EN" "http://www.w3.org/Graphics/SVG/1.1/DTD/svg11.dtd"><svg t="1534910631439" class="icon" style="" viewBox="0 0 1040 1024" version="1.1" xmlns="http://www.w3.org/2000/svg" p-id="2761" xmlns:xlink="http://www.w3.org/1999/xlink" width="203.125" height="200"><defs><style type="text/css"></style></defs><path d="M442.335 900.941c0 49.217-32.507 94.728-82.65 107.732-59.458 15.798-120.752-19.505-136.534-78.946a110.153 110.153 0 0 1 30.638-109.6L102.4 254.487 0.228 195.974l37.156-64.09 128.179 74.314L321.6 790.414c36.214-2.795 71.517 13.003 93.802 40.863l604.647-162.54 19.505 71.517-597.22 160.687z m519.201-293.53L427.479 750.446c-19.504 5.575-39.936-6.502-45.51-26.007L238.932 190.383c-5.575-19.505 6.502-39.936 26.007-45.511L798.996 1.837c19.505-5.575 39.936 6.501 45.511 26.006L987.542 561.9c5.575 20.447-6.501 40.878-26.006 45.51zM582.591 325.079l19.505 71.518 215.479-57.588-19.505-71.517-215.479 57.587z m273.067 156.965l-19.505-71.518-358.514 95.671 19.505 71.518 358.514-95.671z" p-id="2762" fill="#ffffff"></path></svg>