<?xml version="1.0" standalone="no"?><!DOCTYPE svg PUBLIC "-//W3C//DTD SVG 1.1//EN" "http://www.w3.org/Graphics/SVG/1.1/DTD/svg11.dtd"><svg class="icon" width="200px" height="200.00px" viewBox="0 0 1024 1024" version="1.1" xmlns="http://www.w3.org/2000/svg"><path fill="#ffffff" d="M944.081455 843.054545l-68.631273 0 0-46.545455 63.092364 0c4.165818 0 6.725818-13.870545 6.725818-23.552L945.268364 212.666182c0-2.909091 0.325818-0.837818 0.139636-1.024-0.139636-0.069818 0.232727 3.048727-1.326545 3.048727L427.333818 214.690909c-5.981091 0-12.288 0.418909-13.288727 2.420364l0.186182 118.946909c0 28.136727-11.892364 64.837818-44.637091 64.837818L207.476364 400.896c-95.883636 0-146.571636 74.379636-146.571636 196.910545l0 175.173818c0 7.284364 11.682909 23.552 19.386182 23.552l73.704727 0 0 46.545455L77.498182 843.077818c-33.117091 0-63.138909-47.941818-63.138909-70.097455l0-175.173818c0-146.781091 72.215273-243.456 193.117091-243.456l157.090909 0c2.583273 0-1.117091-7.447273-1.117091-16.523636L363.450182 212.666182c0-29.463273 36.096-44.520727 63.883636-44.520727l516.747636 0c27.648 0 47.732364 15.988364 47.732364 44.520727l0 560.290909C991.813818 785.966545 983.528727 843.054545 944.081455 843.054545zM456.541091 796.509091l139.636364 0 0 46.545455-139.636364 0 0-46.545455ZM735.767273 942.801455c-73.355636 0-133.073455-59.717818-133.073455-133.096727 0-73.402182 59.694545-133.12 133.073455-133.12 73.402182 0 133.143273 59.694545 133.143273 133.12C868.910545 883.083636 809.192727 942.801455 735.767273 942.801455zM735.767273 720.989091c-48.872727 0-88.645818 39.796364-88.645818 88.692364s39.773091 88.669091 88.645818 88.669091c48.919273 0 88.715636-39.773091 88.715636-88.669091S784.686545 720.989091 735.767273 720.989091zM305.454545 942.801455c-73.355636 0-133.050182-59.717818-133.050182-133.096727 0-73.402182 59.671273-133.12 133.050182-133.12 73.402182 0 133.143273 59.694545 133.143273 133.12C438.597818 883.083636 378.856727 942.801455 305.454545 942.801455zM305.454545 720.989091c-48.872727 0-88.622545 39.796364-88.622545 88.692364s39.749818 88.669091 88.622545 88.669091c48.942545 0 88.715636-39.773091 88.715636-88.669091S354.397091 720.989091 305.454545 720.989091zM409.995636 610.327273 177.268364 610.327273 177.268364 563.781818 363.450182 563.781818 363.450182 447.418182 409.995636 447.418182Z" /></svg>