<svg xmlns="http://www.w3.org/2000/svg" width="136.07mm" height="25.72mm" viewBox="0 0 385.7 72.91"><title>logo</title><path d="M340,185q19.23,0,38.47,0c1.09,0,1.34.18,1.13,1.33q-1.11,6.24-2,12.52a1.08,1.08,0,0,1-1.36,1.12c-15.24,0-30.48,0-45.73-.05-1.25,0-1.51.41-1.66,1.52q-0.74,5.5-1.7,11c-0.18,1,0,1.27,1.08,1.27,8.19,0,16.37,0,24.56,0,6.17,0,12.34,0,18.51,0,0.87,0,1.16.09,1,1.11-0.67,3.8-1.23,7.63-1.77,11.45a1.07,1.07,0,0,1-1.35,1.06c-14.27,0-28.55,0-42.82,0-1.14,0-1.57.26-1.74,1.44-0.6,4.34-1.29,8.68-2,13-0.19,1.12.15,1.3,1.2,1.3q22.68-.05,45.36,0c1.55,0,1.57,0,1.34,1.51-0.64,4.18-1.32,8.35-1.94,12.53-0.13.92-.67,0.91-1.36,0.91q-11,0-22,0-27.46,0-54.92,0c-1.19,0-1.35-.28-1.17-1.43,1.38-8.62,2.67-17.26,4-25.89q2.12-13.72,4.26-27.44,1.27-8.23,2.51-16.47c0.25-1.65.23-1.66,1.87-1.66H340Z" transform="translate(-83.35 -185)" style="fill:#0e1e7d"/><path d="M191.39,185l-4.76,10.36c-0.55,1.21-1.15,2.39-1.65,3.62a1.39,1.39,0,0,1-1.53,1c-9.55,0-19.11,0-28.66,0-1.93,0-1.94,0-2.23,1.9q-3.39,21.71-6.77,43.41c-0.6,3.86-1.27,7.7-1.81,11.57a1,1,0,0,1-1.31,1.06c-6.57,0-13.14,0-19.71,0-3.27,0-6.53,0-9.8,0-0.82,0-1-.18-0.85-1,1.85-11.72,3.65-23.46,5.48-35.18,1.08-6.92,2.15-13.84,3.28-20.74,0.17-1.06-.32-1-1-1H84.72c-1.5,0-1.49,0-1.26-1.42,0.68-4.17,1.37-8.34,2-12.51a1,1,0,0,1,1.21-1c5,0,9.92,0,14.88,0h89.84Z" transform="translate(-83.35 -185)" style="fill:#0e1e7d"/><path d="M270.29,220a23.13,23.13,0,0,1,7,3.12c7.21,5,9.45,13,5.88,21.19-3.1,7.1-8.76,11-16.09,12.78a32.94,32.94,0,0,1-7.79.84H185.92c-0.8,0-1.19,0-1-1.08q4-24.67,7.81-49.36c1.11-7.07,2.26-14.14,3.31-21.23,0.16-1.1.61-1.22,1.55-1.22q33.44,0,66.88,0a33.27,33.27,0,0,1,7.08.66c4.72,1,8.9,3,11.42,7.36,3.27,5.65,2.66,11.38-.32,16.92-2.51,4.67-6.59,7.61-11.42,9.6Zm-26.81,22.83h0.24a8.78,8.78,0,0,0,9-7.24c0.92-4.18-.84-7.17-4.71-7.92a12.76,12.76,0,0,0-2.4-.23c-8.1,0-16.2,0-24.29,0a1,1,0,0,0-1.22,1c-0.63,4.42-1.32,8.83-2,13.23-0.14.87-.08,1.19,0.93,1.17,4.19-.06,8.38,0,12.57,0h12Zm-8-29.19h11.61a8.94,8.94,0,0,0,5-1.43,7.6,7.6,0,0,0,3.19-8c-0.76-2.68-3.07-4.14-6.62-4.14-7.66,0-15.32,0-23,0a1.1,1.1,0,0,0-1.35,1.16c-0.54,3.78-1.15,7.56-1.8,11.33-0.17,1,.17,1.14,1.05,1.13,4,0,7.9,0,11.85,0h0Z" transform="translate(-83.35 -185)" style="fill:#0e1e7d"/><path d="M373.14,257.79l7-11.46q18.46-30,36.9-60.09a1.85,1.85,0,0,1,1.82-1q18.08,0,36.16,0a1.19,1.19,0,0,1,1.46,1.21q3.76,21.51,7.61,43,2.44,13.72,4.87,27.44c0.13,0.7,0,1-.81,1q-14,0-28.06,0a0.9,0.9,0,0,1-1-1c-0.52-3-1.09-5.94-1.53-8.92-0.18-1.24-.59-1.67-1.94-1.65-7.54.08-15.08,0.06-22.61,0a2,2,0,0,0-2,1.14c-1.91,3.22-3.91,6.38-5.85,9.58a1.38,1.38,0,0,1-1.3.84q-15.06,0-30.11,0A6.5,6.5,0,0,1,373.14,257.79Zm58.15-43.12q-5.31,8.62-10.63,17.24c-0.56.91,0.09,0.78,0.61,0.78,4.19,0,8.37,0,12.56,0,0.78,0,1.06-.13.88-1-0.46-2.28-.82-4.58-1.23-6.88-0.61-3.43-1.22-6.86-1.86-10.45A2.17,2.17,0,0,0,431.29,214.67Z" transform="translate(-83.35 -185)" style="fill:#0e1e7d"/></svg>