<?xml version="1.0" encoding="utf-8"?>
<!-- Generator: Adobe Illustrator 19.2.1, SVG Export Plug-In . SVG Version: 6.00 Build 0)  -->
<svg version="1.1" id="图层_1" xmlns="http://www.w3.org/2000/svg" xmlns:xlink="http://www.w3.org/1999/xlink" x="0px" y="0px"
	 viewBox="0 0 385.7 72.9" style="enable-background:new 0 0 385.7 72.9;" xml:space="preserve">
<style type="text/css">
	.st0{fill:#FFFFFF;}
</style>
<title>logo</title>
<path class="st0" d="M256.7,0c12.8,0,25.6,0,38.5,0c1.1,0,1.3,0.2,1.1,1.3c-0.7,4.2-1.4,8.3-2,12.5c0,0.6-0.4,1.1-1,1.2
	c-0.1,0-0.2,0-0.4,0c-15.2,0-30.5,0-45.7-0.1c-1.2,0-1.5,0.4-1.7,1.5c-0.5,3.7-1.1,7.3-1.7,11c-0.2,1,0,1.3,1.1,1.3
	c8.2,0,16.4,0,24.6,0c6.2,0,12.3,0,18.5,0c0.9,0,1.2,0.1,1,1.1c-0.7,3.8-1.2,7.6-1.8,11.4c0,0.6-0.5,1.1-1,1.1c-0.1,0-0.2,0-0.3,0
	c-14.3,0-28.5,0-42.8,0c-1.1,0-1.6,0.3-1.7,1.4c-0.6,4.3-1.3,8.7-2,13c-0.2,1.1,0.1,1.3,1.2,1.3c15.1,0,30.2,0,45.4,0
	c1.5,0,1.6,0,1.3,1.5c-0.6,4.2-1.3,8.3-1.9,12.5c-0.1,0.9-0.7,0.9-1.4,0.9c-7.3,0-14.7,0-22,0c-18.3,0-36.6,0-54.9,0
	c-1.2,0-1.3-0.3-1.2-1.4c1.4-8.6,2.7-17.3,4-25.9c1.4-9.1,2.8-18.3,4.3-27.4c0.8-5.5,1.7-11,2.5-16.5c0.2-1.6,0.2-1.7,1.9-1.7h38.2
	V0z"/>
<path class="st0" d="M108,0l-4.8,10.4c-0.5,1.2-1.1,2.4-1.6,3.6c-0.2,0.7-0.8,1.1-1.5,1c-9.5,0-19.1,0-28.7,0c-1.9,0-1.9,0-2.2,1.9
	c-2.3,14.5-4.5,28.9-6.8,43.4c-0.6,3.9-1.3,7.7-1.8,11.6c0.1,0.5-0.3,1-0.9,1.1c-0.1,0-0.3,0-0.4,0c-6.6,0-13.1,0-19.7,0
	c-3.3,0-6.5,0-9.8,0c-0.8,0-1-0.2-0.8-1c1.8-11.7,3.6-23.5,5.5-35.2c1.1-6.9,2.1-13.8,3.3-20.7c0.2-1.1-0.3-1-1-1H1.4
	c-1.5,0-1.5,0-1.3-1.4c0.7-4.2,1.4-8.3,2-12.5c0-0.6,0.4-1,1-1c0.1,0,0.2,0,0.2,0c5,0,9.9,0,14.9,0L108,0L108,0z"/>
<path class="st0" d="M186.9,35c2.5,0.6,4.9,1.7,7,3.1c7.2,5,9.4,13,5.9,21.2c-3.1,7.1-8.8,11-16.1,12.8c-2.6,0.6-5.2,0.9-7.8,0.8
	h-73.4c-0.8,0-1.2,0-1-1.1c2.7-16.4,5.3-32.9,7.8-49.4c1.1-7.1,2.3-14.1,3.3-21.2c0.2-1.1,0.6-1.2,1.5-1.2c22.3,0,44.6,0,66.9,0
	c2.4,0,4.8,0.2,7.1,0.7c4.7,1,8.9,3,11.4,7.4c3.3,5.6,2.7,11.4-0.3,16.9c-2.5,4.7-6.6,7.6-11.4,9.6L186.9,35z M160.1,57.8h0.2
	c4.4,0.2,8.2-2.9,9-7.2c0.9-4.2-0.8-7.2-4.7-7.9c-0.8-0.2-1.6-0.2-2.4-0.2c-8.1,0-16.2,0-24.3,0c-0.5-0.1-1.1,0.2-1.2,0.8
	c0,0.1,0,0.2,0,0.2c-0.6,4.4-1.3,8.8-2,13.2c-0.1,0.9-0.1,1.2,0.9,1.2c4.2-0.1,8.4,0,12.6,0h12L160.1,57.8z M152.1,28.6h11.6
	c1.8,0,3.5-0.5,5-1.4c2.6-1.7,3.9-4.9,3.2-8c-0.8-2.7-3.1-4.1-6.6-4.1c-7.7,0-15.3,0-23,0c-0.6-0.1-1.2,0.2-1.3,0.8
	c0,0.1,0,0.2,0,0.3c-0.5,3.8-1.1,7.6-1.8,11.3c-0.2,1,0.2,1.1,1,1.1C144.2,28.7,148.1,28.7,152.1,28.6L152.1,28.6L152.1,28.6z"/>
<path class="st0" d="M289.8,72.8l7-11.5c12.3-20,24.6-40,36.9-60.1c0.3-0.7,1.1-1.1,1.8-1c12.1,0,24.1,0,36.2,0
	c0.6-0.1,1.3,0.2,1.4,0.9c0,0.1,0,0.2,0,0.3c2.5,14.3,5,28.7,7.6,43c1.6,9.1,3.2,18.3,4.9,27.4c0.1,0.7,0,1-0.8,1
	c-9.3,0-18.7,0-28.1,0c-0.5,0.1-0.9-0.3-1-0.8c0-0.1,0-0.1,0-0.2c-0.5-3-1.1-5.9-1.5-8.9c-0.2-1.2-0.6-1.7-1.9-1.6
	c-7.5,0.1-15.1,0.1-22.6,0c-0.8-0.1-1.6,0.4-2,1.1c-1.9,3.2-3.9,6.4-5.8,9.6c-0.2,0.5-0.7,0.9-1.3,0.8c-10,0-20.1,0-30.1,0
	C290.2,72.9,290,72.8,289.8,72.8z M347.9,29.7c-3.5,5.7-7.1,11.5-10.6,17.2c-0.6,0.9,0.1,0.8,0.6,0.8c4.2,0,8.4,0,12.6,0
	c0.8,0,1.1-0.1,0.9-1c-0.5-2.3-0.8-4.6-1.2-6.9c-0.6-3.4-1.2-6.9-1.9-10.4C348.1,29.5,348,29.6,347.9,29.7L347.9,29.7z"/>
</svg>
