<?xml version="1.0" standalone="no"?><!DOCTYPE svg PUBLIC "-//W3C//DTD SVG 1.1//EN" "http://www.w3.org/Graphics/SVG/1.1/DTD/svg11.dtd"><svg class="icon" width="200px" height="200.00px" viewBox="0 0 1024 1024" version="1.1" xmlns="http://www.w3.org/2000/svg"><path fill="#ffffff" d="M641.791 363.327c-154.333 0-279.448 125.113-279.448 279.446 0 154.337 125.114 279.448 279.448 279.448 154.337 0 279.448-125.111 279.448-279.448-0.001-154.334-125.111-279.446-279.448-279.446z m0 521.636c-133.755 0-242.186-108.431-242.186-242.19 0-133.755 108.431-242.186 242.186-242.186 133.759 0 242.188 108.431 242.188 242.186 0 133.759-108.43 242.19-242.188 242.19zM250.565 530.996c-30.87 0-55.891 25.02-55.891 55.89 0 30.866 25.022 55.888 55.891 55.888 30.866 0 55.888-25.022 55.888-55.888 0-30.87-25.022-55.89-55.888-55.89z m0 74.519c-10.289 0-18.632-8.341-18.632-18.63 0-10.291 8.342-18.632 18.632-18.632 10.287 0 18.628 8.341 18.628 18.632 0 10.289-8.34 18.63-18.628 18.63zM138.786 791.814c-20.579 0-37.262-16.681-37.262-37.26V195.656c0-20.577 16.683-37.258 37.262-37.258h37.26c0.001 30.867 25.02 55.888 55.888 55.888s55.889-25.021 55.89-55.888h74.52c0.001 30.867 25.024 55.888 55.89 55.888s55.889-25.021 55.89-55.888h74.52c0.001 30.867 25.024 55.888 55.89 55.888 30.867 0 55.89-25.021 55.891-55.888h37.26c20.577 0 37.258 16.681 37.258 37.258v144.343a314.578 314.578 0 0 1 37.26 14.078V195.656c0-41.153-33.362-74.518-74.518-74.518h-37.26c0-30.868-25.024-55.89-55.891-55.89-30.866 0-55.89 25.022-55.89 55.89h-74.519c0-30.868-25.024-55.89-55.89-55.89s-55.89 25.022-55.89 55.89h-74.519c0-30.868-25.022-55.89-55.89-55.89s-55.888 25.022-55.888 55.89h-37.26c-41.157 0-74.521 33.364-74.521 74.518v558.898c0 41.155 33.364 74.519 74.521 74.519h246.888a316.74 316.74 0 0 1-23.38-37.26h-223.51z m447.117-670.675c0-10.289 8.339-18.632 18.628-18.632s18.63 8.342 18.63 18.632v37.258c0 10.291-8.341 18.632-18.63 18.632s-18.628-8.341-18.628-18.632v-37.258z m-186.301 0c0-10.289 8.342-18.632 18.63-18.632 10.289 0 18.63 8.342 18.63 18.632v37.258c0 10.291-8.341 18.632-18.63 18.632-10.287 0-18.63-8.341-18.63-18.632v-37.258z m-186.298 0c0-10.289 8.342-18.632 18.63-18.632 10.291 0 18.632 8.342 18.632 18.632v37.258c0 10.291-8.341 18.632-18.632 18.632-10.287 0-18.63-8.341-18.63-18.632v-37.258z m596.157 503.004H694.487c-5.613-15.875-18.189-28.452-34.065-34.065V475.106c0-10.289-8.342-18.63-18.632-18.63-10.287 0-18.628 8.341-18.628 18.63v114.971c-21.705 7.673-37.26 28.363-37.26 52.695 0 30.868 25.022 55.891 55.888 55.891 24.334 0 45.024-15.556 52.697-37.262h114.974c10.287 0 18.628-8.341 18.628-18.63 0-10.287-8.34-18.628-18.628-18.628z m-167.67 37.26c-10.287 0-18.628-8.341-18.628-18.63s8.341-18.63 18.628-18.63c10.289 0 18.632 8.341 18.632 18.63-0.001 10.289-8.343 18.63-18.632 18.63zM250.565 326.067c-30.87 0-55.891 25.022-55.891 55.89 0 30.866 25.022 55.888 55.891 55.888 30.866 0 55.888-25.022 55.888-55.888 0-30.868-25.022-55.89-55.888-55.89z m0 74.52c-10.289 0-18.632-8.342-18.632-18.63 0-10.291 8.342-18.632 18.632-18.632 10.287 0 18.628 8.341 18.628 18.632 0 10.287-8.34 18.63-18.628 18.63z m167.667-74.52c-30.866 0-55.89 25.022-55.89 55.89 0 25.329 16.856 46.71 39.958 53.57a318.338 318.338 0 0 1 71.298-61.133c-3.693-27.288-27.066-48.327-55.366-48.327z m0 74.52c-10.287 0-18.63-8.342-18.63-18.63 0-10.291 8.342-18.632 18.63-18.632 10.289 0 18.63 8.341 18.63 18.632 0 10.287-8.341 18.63-18.63 18.63z" /></svg>