<?xml version="1.0" standalone="no"?><!DOCTYPE svg PUBLIC "-//W3C//DTD SVG 1.1//EN" "http://www.w3.org/Graphics/SVG/1.1/DTD/svg11.dtd"><svg t="1533779472977" class="icon" style="" viewBox="0 0 1024 1024" version="1.1" xmlns="http://www.w3.org/2000/svg" p-id="1190" xmlns:xlink="http://www.w3.org/1999/xlink" width="200" height="200"><defs><style type="text/css"></style></defs><path d="M512 256a318.8 318.8 0 1 1-124.54 25.12A317.94 317.94 0 0 1 512 256m0-64c-212.08 0-384 171.92-384 384s171.92 384 384 384 384-171.92 384-384-171.92-384-384-384zM640 64H384v64h256V64z" p-id="1191" fill="#ffffff"></path><path d="M544 64h-64v192h64V64zM544 320h-64v210.75l64 64V320zM544 594.75v90.5L626.75 768 672 722.75l-128-128z" p-id="1192" fill="#ffffff"></path><path d="M480 530.75v90.5l64 64v-90.5l-64-64z" p-id="1193" fill="#ffffff"></path></svg>