<?xml version="1.0" standalone="no"?><!DOCTYPE svg PUBLIC "-//W3C//DTD SVG 1.1//EN" "http://www.w3.org/Graphics/SVG/1.1/DTD/svg11.dtd"><svg t="1534910941632" class="icon" style="" viewBox="0 0 1069 1024" version="1.1" xmlns="http://www.w3.org/2000/svg" p-id="4451" xmlns:xlink="http://www.w3.org/1999/xlink" width="208.7890625" height="200"><defs><style type="text/css"></style></defs><path d="M667.379 217.64q-9.39 0-16.41-6.57t-11.73-15.93-7.020-19.23-2.34-16.41v-116.25h1.89q7.5 0 15.48 2.34t18.75 8.91 26.25 19.23 38.91 33.27q25.32 22.5 39.84 38.43t22.5 26.73 9.84 18.27 1.89 13.14v14.070h-137.82zM776.129 569.18q43.14 0 80.64 15.93t65.64 44.070 44.070 65.64 15.93 80.64-15.93 80.64-44.070 65.64-65.64 44.070-80.64 15.93q-42.18 0-79.68-15.93t-65.64-44.070-44.52-65.64-16.41-80.64 16.41-80.64 44.52-65.64 65.64-44.070 79.68-15.93zM893.309 808.25q8.43 0 15-9.39t6.57-22.5-6.57-22.5-15-9.39h-89.070v-82.5q0-7.5-7.98-13.14t-22.020-5.64-21.090 5.64-7.020 13.14v103.14q-1.89 7.5-1.89 11.25 0 13.14 6.57 22.5t15 9.39h127.5zM508.949 747.32q-0.93 6.57-0.93 13.14v14.070q0 42.18 12.18 79.68t33.75 70.32h-331.89q-17.82 0-38.91-10.32t-39.39-27.18-30.48-38.43-12.18-45v-639.39q0-19.68 9.39-40.77t24.39-38.91 34.68-29.52 41.25-11.73h359.070v117.18q0 18.75 5.64 38.91t17.82 37.98 30.93 29.070 44.070 11.25h136.89v233.43q-7.5-1.89-15.93-1.89h-16.89q-70.32 0-128.43 32.82t-93.75 88.14h-272.82q-24.39 0-41.73 16.89t-17.34 41.25 17.34 41.73 41.73 17.34h231.57zM277.379 394.82q-24.39 0-41.73 17.34t-17.34 41.73 17.34 41.25 41.73 16.89h351.57q24.39 0 41.25-16.89t16.89-41.25-16.89-41.73-41.25-17.34h-351.57z" p-id="4452" fill="#ffffff"></path></svg>