<?xml version="1.0" standalone="no"?><!DOCTYPE svg PUBLIC "-//W3C//DTD SVG 1.1//EN" "http://www.w3.org/Graphics/SVG/1.1/DTD/svg11.dtd"><svg class="icon" width="200px" height="200.00px" viewBox="0 0 1024 1024" version="1.1" xmlns="http://www.w3.org/2000/svg"><path fill="#ffffff" d="M950.5 887.8H82c-4.9 0-8.9 4-8.9 8.9v8.9c0 4.9 4 8.9 8.9 8.9h868.5c4.9 0 8.9-4 8.9-8.9v-8.9c-0.1-4.9-4.1-8.9-8.9-8.9zM821.3 529c-11 0-21.9-2.3-32.2-6.9-19.5-8.6-34.4-24.3-42.1-44.2-7.7-19.9-7.2-41.5 1.4-61s24.3-34.4 44.2-42.1c19.9-7.7 41.5-7.2 61 1.4s34.4 24.3 42.1 44.2c7.7 19.9 7.2 41.5-1.4 61s-24.3 34.4-44.2 42.1c-9.4 3.7-19.1 5.5-28.8 5.5z m0-141.9c-7.6 0-15.1 1.4-22.4 4.2-15.5 6-27.7 17.6-34.4 32.8-6.7 15.2-7.1 32-1.1 47.5s17.6 27.7 32.8 34.4c15.2 6.7 32 7.1 47.5 1.1s27.7-17.6 34.4-32.8c6.7-15.2 7.1-32 1.1-47.5s-17.6-27.7-32.8-34.4c-8-3.5-16.5-5.3-25.1-5.3z"  /><path fill="#ffffff" d="M821.4 493.5c-17.8 0-34.6-10.8-41.4-28.3-8.8-22.8 2.6-48.5 25.3-57.3 11-4.3 23.1-4 33.9 0.8 10.8 4.8 19.1 13.5 23.4 24.5 8.8 22.8-2.6 48.5-25.3 57.3-5.2 2-10.6 3-15.9 3z m-0.1-70.9c-3.2 0-6.5 0.6-9.6 1.8-13.7 5.3-20.5 20.7-15.2 34.4 5.3 13.7 20.7 20.5 34.4 15.2 13.7-5.3 20.5-20.7 15.2-34.4-2.6-6.6-7.5-11.9-14-14.7-3.5-1.5-7.1-2.3-10.8-2.3zM627.1 199.2c-7.3 0-14.6-1.5-21.5-4.6-13-5.7-23-16.2-28.1-29.5-10.6-27.3 3.1-58.2 30.4-68.8 13.2-5.1 27.7-4.8 40.7 1 13 5.7 23 16.2 28.1 29.5 10.6 27.3-3.1 58.2-30.4 68.8-6.3 2.4-12.8 3.6-19.2 3.6z m0-88.7c-4.3 0-8.6 0.8-12.8 2.4-8.8 3.4-15.8 10.1-19.6 18.7-3.8 8.7-4.1 18.3-0.6 27.1 3.4 8.8 10.1 15.8 18.7 19.6 8.7 3.8 18.3 4.1 27.1 0.6 8.8-3.4 15.8-10.1 19.6-18.7 3.8-8.7 4.1-18.3 0.6-27.1-3.4-8.8-10.1-15.8-18.7-19.6-4.6-2-9.4-3-14.3-3z"  /><path fill="#ffffff" d="M605.81 191.647l15.858-7.864 138.266 278.804-15.858 7.864zM884.2 424.2c-2.7 0-5.3-1.2-7-3.5L664.6 143.6c-3-3.9-2.2-9.4 1.6-12.4 3.9-3 9.4-2.2 12.4 1.6L891.3 410c3 3.9 2.2 9.4-1.6 12.4-1.7 1.2-3.6 1.8-5.5 1.8zM499.7 303.4c-4.9 0-9.7-1-14.3-3-8.7-3.8-15.3-10.8-18.7-19.6-7-18.2 2-38.8 20.3-45.8 8.8-3.4 18.5-3.2 27.1 0.6 8.7 3.8 15.3 10.8 18.7 19.6 3.4 8.8 3.2 18.5-0.6 27.1-3.8 8.7-10.8 15.3-19.6 18.7-4.3 1.6-8.6 2.4-12.9 2.4z m-16.6-29c1.7 4.4 5 7.9 9.4 9.8 4.3 1.9 9.1 2 13.6 0.3 4.4-1.7 7.9-5 9.8-9.4 1.9-4.3 2-9.1 0.3-13.6-1.7-4.4-5-7.9-9.4-9.8-4.3-1.9-9.1-2-13.6-0.3-9 3.6-13.6 13.8-10.1 23z"  /><path fill="#ffffff" d="M490.1 252c-2.1 0-4.1-0.7-5.8-2.2-3.7-3.2-4.1-8.8-0.9-12.5l94.3-109.2c3.2-3.7 8.8-4.1 12.5-0.9 3.7 3.2 4.1 8.8 0.9 12.5L496.8 249c-1.8 2-4.2 3-6.7 3zM518.584 261.346l78.512-83.889 12.922 12.095-78.51 83.888zM921.5 663.5c-4.4 0-8.2-3.2-8.8-7.6l-30.9-222.7c-0.7-4.8 2.7-9.3 7.6-10 4.9-0.7 9.3 2.7 10 7.6l30.9 222.7c0.7 4.8-2.7 9.3-7.6 10h-1.2zM755.5 657.4h-0.2c-4.9-0.1-8.8-4.1-8.7-9l2.9-165.5c0.1-4.9 4.1-8.7 9-8.7 4.9 0.1 8.8 4.1 8.7 9l-2.9 165.5c0 4.8-4 8.7-8.8 8.7zM489.6 651.5H179.4c-4.9 0-8.9-4-8.9-8.9V408.2c0-4.9 4-8.9 8.9-8.9h310.2c4.9 0 8.9 4 8.9 8.9v234.4c0 4.9-4 8.9-8.9 8.9z m-301.3-17.8h292.5V417.1H188.3v216.6z"  /><path fill="#ffffff" d="M489.6 417.1H179.4c-3.5 0-6.7-2.1-8.1-5.3-1.4-3.2-0.7-7 1.7-9.6l51.7-55.1c1.7-1.8 4-2.8 6.5-2.8H438c2.4 0 4.8 1 6.5 2.8l51.7 55.1c2.4 2.6 3.1 6.3 1.7 9.6-1.5 3.2-4.7 5.3-8.3 5.3z m-289.7-17.7h269.3L434.1 362H235l-35.1 37.4zM888.4 781.5H135.1c-39.1 0-70.9-31.8-70.9-70.9 0-39.1 31.8-70.9 70.9-70.9h753.3c39.1 0 70.9 31.8 70.9 70.9 0 39-31.8 70.9-70.9 70.9zM135.1 657.4c-29.3 0-53.2 23.9-53.2 53.2s23.9 53.2 53.2 53.2h753.3c29.3 0 53.2-23.9 53.2-53.2s-23.9-53.2-53.2-53.2H135.1z"  /><path fill="#ffffff" d="M135.1 754.9c-24.4 0-44.3-19.9-44.3-44.3s19.9-44.3 44.3-44.3 44.3 19.9 44.3 44.3-19.8 44.3-44.3 44.3z m0-79.8c-19.5 0-35.4 15.9-35.4 35.4s15.9 35.4 35.4 35.4 35.4-15.9 35.4-35.4-15.8-35.4-35.4-35.4z"  /><path fill="#ffffff" d="M135.1 710.6m-13.3 0a13.3 13.3 0 1 0 26.6 0 13.3 13.3 0 1 0-26.6 0Z"  /><path fill="#ffffff" d="M888.4 754.9c-24.4 0-44.3-19.9-44.3-44.3s19.9-44.3 44.3-44.3 44.3 19.9 44.3 44.3-19.8 44.3-44.3 44.3z m0-79.8c-19.5 0-35.4 15.9-35.4 35.4s15.9 35.4 35.4 35.4 35.4-15.9 35.4-35.4-15.8-35.4-35.4-35.4z"  /><path fill="#ffffff" d="M888.4 710.6m-13.3 0a13.3 13.3 0 1 0 26.6 0 13.3 13.3 0 1 0-26.6 0Z"  /><path fill="#ffffff" d="M126.3 710.6H144v177.2h-17.7zM879.6 710.6h17.7v177.2h-17.7zM884 675.1H130.7c-2.4 0-4.4-2-4.4-4.4 0-2.4 2-4.4 4.4-4.4H884c2.4 0 4.4 2 4.4 4.4 0 2.4-2 4.4-4.4 4.4z"  /><path fill="#ffffff" d="M884 754.9H130.7c-2.4 0-4.4-2-4.4-4.4 0-2.4 2-4.4 4.4-4.4H884c2.4 0 4.4 2 4.4 4.4 0 2.4-2 4.4-4.4 4.4zM445.3 325c-1.1 0-2.3-0.4-3.1-1.3-1.7-1.7-1.7-4.5 0-6.3l35.4-35.4c1.7-1.7 4.5-1.7 6.3 0 1.7 1.7 1.7 4.5 0 6.3l-35.4 35.4c-0.9 0.9-2.1 1.3-3.2 1.3zM348.1 508.5l-39.9 69.1h25.1l27.3-47.4zM352.7 474.7h-25.1L300.2 522l12.6 21.7z"  /></svg>