<?xml version="1.0" standalone="no"?><!DOCTYPE svg PUBLIC "-//W3C//DTD SVG 1.1//EN" "http://www.w3.org/Graphics/SVG/1.1/DTD/svg11.dtd"><svg class="icon" width="200px" height="200.00px" viewBox="0 0 1024 1024" version="1.1" xmlns="http://www.w3.org/2000/svg"><path fill="#ffffff" d="M715.2 254.4H312l-144 144 328 400 14.4 38.4 9.6-25.6L859.2 400l-144-145.6zM510.4 726.4l-115.2-302.4h232l-116.8 302.4zM379.2 384l-33.6-88h329.6L641.6 384H379.2zM336 384h-96l70.4-70.4L336 384z m376-75.2l73.6 73.6h-102.4l28.8-73.6z m-473.6 115.2H352l99.2 257.6-212.8-257.6z m430.4 0h118.4L564.8 694.4l104-270.4z"  /></svg>