<?xml version="1.0" standalone="no"?><!DOCTYPE svg PUBLIC "-//W3C//DTD SVG 1.1//EN" "http://www.w3.org/Graphics/SVG/1.1/DTD/svg11.dtd"><svg t="1537427030128" class="icon" style="" viewBox="0 0 1024 1024" version="1.1" xmlns="http://www.w3.org/2000/svg" p-id="1951" xmlns:xlink="http://www.w3.org/1999/xlink" width="200" height="200"><defs><style type="text/css"></style></defs><path d="M912 226.3v114.3c0 7.7-2.8 14.5-8.5 20.1-5.6 5.6-12.4 8.5-20.1 8.5H140.5c-7.7 0-14.5-2.8-20.1-8.5-5.6-5.6-8.5-12.3-8.5-20.1V226.3c0-7.7 2.8-14.5 8.5-20.1s12.3-8.5 20.1-8.5h742.9c7.7 0 14.5 2.8 20.1 8.5 5.7 5.6 8.5 12.4 8.5 20.1z m0 228.6v114.3c0 7.7-2.8 14.5-8.5 20.1-5.6 5.6-12.4 8.5-20.1 8.5H140.5c-7.7 0-14.5-2.8-20.1-8.5-5.6-5.6-8.5-12.3-8.5-20.1V454.9c0-7.7 2.8-14.5 8.5-20.1 5.6-5.6 12.3-8.5 20.1-8.5h742.9c7.7 0 14.5 2.8 20.1 8.5 5.7 5.7 8.5 12.3 8.5 20.1z m0 228.6v114.3c0 7.7-2.8 14.5-8.5 20.1-5.6 5.6-12.4 8.5-20.1 8.5H140.5c-7.7 0-14.5-2.8-20.1-8.5-5.6-5.6-8.5-12.3-8.5-20.1V683.5c0-7.7 2.8-14.5 8.5-20.1 5.6-5.6 12.3-8.5 20.1-8.5h742.9c7.7 0 14.5 2.8 20.1 8.5 5.7 5.6 8.5 12.4 8.5 20.1z m-514.3-143h457.2v-57.2H397.7v57.2z m171.5 228.7h285.7V712H569.2v57.2zM683.5 312H855v-57.2H683.5V312z" p-id="1952" fill="#ffffff"></path></svg>