<?xml version="1.0" standalone="no"?><!DOCTYPE svg PUBLIC "-//W3C//DTD SVG 1.1//EN" "http://www.w3.org/Graphics/SVG/1.1/DTD/svg11.dtd"><svg t="1533779625199" class="icon" style="" viewBox="0 0 1024 1024" version="1.1" xmlns="http://www.w3.org/2000/svg" p-id="1581" xmlns:xlink="http://www.w3.org/1999/xlink" width="200" height="200"><defs><style type="text/css"></style></defs><path d="M813.632 696.32h-96.672v-96.672a19.008 19.008 0 0 0-37.952 0v96.672h-96.672a19.008 19.008 0 0 0 0 37.952h96.672v96.672a19.008 19.008 0 0 0 37.952 0v-96.672h96.672a19.008 19.008 0 0 0 0-37.952" p-id="1582" fill="#ffffff"></path><path d="M744.576 488.832c-48.32 48.32-123.2 57.28-180.512 26.56l-253.792 251.232c-17.6 17.6-45.44 17.6-61.76 0-17.6-17.6-17.6-45.44 0-61.76l252.512-252.832c-30.72-58.88-23.36-132.16 26.56-180.832 29.44-29.44 67.52-44.16 105.6-44.16-40.96 42.56-39.68 110.08 1.6 152.64a108.672 108.672 0 0 0 152.64 1.6c-0.288 40.032-13.408 78.112-42.848 107.552z m70.432-191.072c-10.24 11.84-29.44 27.84-54.4 51.52-27.84 27.84-65.92 27.84-92.48 0-27.84-27.84-27.84-66.24 0-92.48 23.36-24.96 51.2-55.68 49.92-55.68a194.944 194.944 0 0 0-221.472 39.36c-54.4 54.4-70.4 133.76-47.04 202.912l-231.712 230.432a88.288 88.288 0 0 0 0 123.52c33.6 33.92 89.6 33.92 124.8 0l231.712-232.032c68.8 23.36 148.16 7.36 202.592-47.04 58.56-58.88 70.4-147.232 38.08-220.512z" p-id="1583" fill="#ffffff"></path></svg>