<?xml version="1.0" standalone="no"?><!DOCTYPE svg PUBLIC "-//W3C//DTD SVG 1.1//EN" "http://www.w3.org/Graphics/SVG/1.1/DTD/svg11.dtd"><svg t="1533780582796" class="icon" style="" viewBox="0 0 1024 1024" version="1.1" xmlns="http://www.w3.org/2000/svg" p-id="4856" xmlns:xlink="http://www.w3.org/1999/xlink" width="200" height="200"><defs><style type="text/css"></style></defs><path d="M401.42 521.352H218.979v36.486H401.42v-36.486z m0-109.465H218.979v36.488H401.42v-36.488zM218.979 776.768H620.35v-36.486H218.979v36.486z m523.736-304.806L517.522 229.444H164.247c-40.303 0-72.976 32.673-72.976 72.977v583.812c0 40.305 32.673 72.977 72.976 72.977h510.835c40.305 0 72.977-32.672 72.977-72.977V484.862l-6.45-6.45 1.106-6.45zM529.129 296.243l159.726 170.375H565.618c-20.151 0-36.488-16.336-36.488-36.488V296.243z m182.441 589.99c0 20.152-16.336 36.49-36.488 36.49H164.247c-20.151 0-36.488-16.338-36.488-36.49V302.421c0-20.151 16.338-36.486 36.488-36.486h328.394V430.13c0 40.305 32.673 72.977 72.977 72.977H711.57v383.126zM218.979 667.305H620.35v-36.49H218.979v36.49z m705.07-298.357l1.107-6.451-225.194-242.516H346.688c-40.303 0-72.976 32.672-72.976 72.977h36.49c0-20.152 16.334-36.49 36.486-36.49h328.394v164.199c0 40.303 32.673 72.977 72.977 72.977h145.953v383.125c0 20.152-16.336 36.49-36.488 36.49h-72.977v36.488h72.977c40.305 0 72.977-32.675 72.977-72.978V375.398l-6.452-6.45z m-175.99-11.795c-20.152 0-36.488-16.336-36.488-36.486V186.779l159.727 170.375H748.059z" p-id="4857" fill="#ffffff"></path></svg>