<?xml version="1.0" standalone="no"?><!DOCTYPE svg PUBLIC "-//W3C//DTD SVG 1.1//EN" "http://www.w3.org/Graphics/SVG/1.1/DTD/svg11.dtd"><svg t="1533779564491" class="icon" style="" viewBox="0 0 1024 1024" version="1.1" xmlns="http://www.w3.org/2000/svg" p-id="1424" xmlns:xlink="http://www.w3.org/1999/xlink" width="200" height="200"><defs><style type="text/css"></style></defs><path d="M768 640l-64 0c-8.832 0-16 7.168-16 16 0 8.832 7.168 16 16 16l41.888 0L672 745.888l-20.928-20.928c-6.24-6.24-16.384-6.24-22.624 0l-83.52 83.52c-3.712 3.008-6.24 7.392-6.24 12.544 0 9.024 7.328 16.32 16.32 16.32 5.152 0 9.536-2.528 12.544-6.24l72.224-72.224 20.928 20.928c3.136 3.136 7.232 4.672 11.328 4.672s8.192-1.568 11.328-4.672L768 695.136 768 736c0 8.832 7.168 16 16 16S800 744.832 800 736l0-64 0-14.464c0.064-0.864 0.064-1.696 0-2.56L800 640 768 640z" p-id="1425" fill="#ffffff"></path><path d="M512 589.376c-117.792 0-213.6-95.808-213.6-213.6S394.208 162.176 512 162.176s213.6 95.84 213.6 213.6S629.792 589.376 512 589.376zM512 194.176c-100.128 0-181.6 81.472-181.6 181.6 0 100.128 81.472 181.6 181.6 181.6s181.6-81.472 181.6-181.6C693.6 275.648 612.128 194.176 512 194.176z" p-id="1426" fill="#ffffff"></path><path d="M816 861.824c-8.832 0-16-7.168-16-16 0-14.208-1.056-28.48-3.104-42.368-1.312-8.736 4.736-16.864 13.472-18.176 8.928-1.28 16.864 4.768 18.176 13.472C830.848 814.208 832 830.016 832 845.824 832 854.656 824.832 861.824 816 861.824z" p-id="1427" fill="#ffffff"></path><path d="M208 861.824c-8.832 0-16-7.168-16-16 0-141.248 94.592-267.552 230.048-307.2 8.416-2.496 17.344 2.4 19.84 10.88 2.496 8.48-2.4 17.344-10.88 19.84C309.12 604.992 224 718.688 224 845.824 224 854.656 216.832 861.824 208 861.824z" p-id="1428" fill="#ffffff"></path></svg>